<mxfile host="app.diagrams.net" modified="2022-09-11T10:06:09.693Z" agent="5.0 (Windows NT 10.0; Win64; x64) AppleWebKit/537.36 (KHTML, like Gecko) Chrome/105.0.0.0 Safari/537.36" etag="UZO10JzQ73kYts9pb6Xq" version="20.3.0" type="github" pages="3">
  <diagram id="hN93t1C7bbDnFKwRcA_1" name="ADF">
    <mxGraphModel dx="1182" dy="732" grid="1" gridSize="10" guides="1" tooltips="1" connect="1" arrows="1" fold="1" page="1" pageScale="1" pageWidth="850" pageHeight="1100" math="0" shadow="0">
      <root>
        <mxCell id="0" />
        <mxCell id="1" parent="0" />
        <mxCell id="58T3i-XOkE9TOOSeGLQk-48" value="" style="edgeStyle=orthogonalEdgeStyle;rounded=0;orthogonalLoop=1;jettySize=auto;html=1;curved=1;exitX=0.875;exitY=0.5;exitDx=0;exitDy=0;exitPerimeter=0;" parent="1" source="58T3i-XOkE9TOOSeGLQk-49" target="58T3i-XOkE9TOOSeGLQk-45" edge="1">
          <mxGeometry relative="1" as="geometry">
            <mxPoint x="326" y="344" as="sourcePoint" />
          </mxGeometry>
        </mxCell>
        <mxCell id="58T3i-XOkE9TOOSeGLQk-52" style="edgeStyle=orthogonalEdgeStyle;rounded=0;orthogonalLoop=1;jettySize=auto;html=1;curved=1;" parent="1" source="58T3i-XOkE9TOOSeGLQk-45" target="58T3i-XOkE9TOOSeGLQk-51" edge="1">
          <mxGeometry relative="1" as="geometry" />
        </mxCell>
        <mxCell id="58T3i-XOkE9TOOSeGLQk-54" style="edgeStyle=orthogonalEdgeStyle;curved=1;rounded=0;orthogonalLoop=1;jettySize=auto;html=1;exitX=0.625;exitY=0.22;exitDx=0;exitDy=0;exitPerimeter=0;" parent="1" source="58T3i-XOkE9TOOSeGLQk-53" target="58T3i-XOkE9TOOSeGLQk-45" edge="1">
          <mxGeometry relative="1" as="geometry" />
        </mxCell>
        <mxCell id="58T3i-XOkE9TOOSeGLQk-45" value="Data Factory" style="aspect=fixed;html=1;points=[];align=center;image;fontSize=12;image=img/lib/azure2/databases/Data_Factory.svg;fontStyle=1" parent="1" vertex="1">
          <mxGeometry x="400" y="310" width="68" height="68" as="geometry" />
        </mxCell>
        <mxCell id="58T3i-XOkE9TOOSeGLQk-49" value="Source" style="ellipse;shape=cloud;whiteSpace=wrap;html=1;" parent="1" vertex="1">
          <mxGeometry x="150" y="298" width="120" height="80" as="geometry" />
        </mxCell>
        <mxCell id="58T3i-XOkE9TOOSeGLQk-51" value="Sink" style="ellipse;shape=cloud;whiteSpace=wrap;html=1;" parent="1" vertex="1">
          <mxGeometry x="580" y="298" width="120" height="80" as="geometry" />
        </mxCell>
        <UserObject label="Triggers and Scheduling" link="data:page/id,6sVfNMEkasIMU-PjwVjW" id="58T3i-XOkE9TOOSeGLQk-53">
          <mxCell style="verticalLabelPosition=bottom;html=1;verticalAlign=top;align=center;strokeColor=none;fillColor=#00BEF2;shape=mxgraph.azure.scheduler;pointerEvents=1;fontStyle=1" parent="1" vertex="1">
            <mxGeometry x="400" y="480" width="40" height="50" as="geometry" />
          </mxCell>
        </UserObject>
        <mxCell id="s5hEy_mSqx-h-BMvZN1o-1" value="Manually" style="shape=image;html=1;verticalAlign=top;verticalLabelPosition=bottom;labelBackgroundColor=#ffffff;imageAspect=0;aspect=fixed;image=https://cdn0.iconfinder.com/data/icons/phosphor-regular-vol-3/256/hand-pointing-128.png;fontStyle=1" vertex="1" parent="1">
          <mxGeometry x="620" y="680" width="40" height="40" as="geometry" />
        </mxCell>
        <mxCell id="s5hEy_mSqx-h-BMvZN1o-2" style="edgeStyle=orthogonalEdgeStyle;curved=1;rounded=0;orthogonalLoop=1;jettySize=auto;html=1;exitX=0.5;exitY=0;exitDx=0;exitDy=0;entryX=0;entryY=0.378;entryDx=0;entryDy=0;entryPerimeter=0;" edge="1" parent="1" source="s5hEy_mSqx-h-BMvZN1o-8" target="s5hEy_mSqx-h-BMvZN1o-5">
          <mxGeometry relative="1" as="geometry" />
        </mxCell>
        <mxCell id="s5hEy_mSqx-h-BMvZN1o-3" style="edgeStyle=orthogonalEdgeStyle;curved=1;rounded=0;orthogonalLoop=1;jettySize=auto;html=1;exitX=0.549;exitY=-0.075;exitDx=0;exitDy=0;exitPerimeter=0;entryX=0;entryY=0.578;entryDx=0;entryDy=0;entryPerimeter=0;" edge="1" parent="1" source="s5hEy_mSqx-h-BMvZN1o-9" target="s5hEy_mSqx-h-BMvZN1o-5">
          <mxGeometry relative="1" as="geometry" />
        </mxCell>
        <mxCell id="s5hEy_mSqx-h-BMvZN1o-4" style="edgeStyle=orthogonalEdgeStyle;curved=1;rounded=0;orthogonalLoop=1;jettySize=auto;html=1;exitX=0.493;exitY=-0.025;exitDx=0;exitDy=0;exitPerimeter=0;entryX=1;entryY=0.41;entryDx=0;entryDy=0;entryPerimeter=0;" edge="1" parent="1" source="s5hEy_mSqx-h-BMvZN1o-12" target="s5hEy_mSqx-h-BMvZN1o-5">
          <mxGeometry relative="1" as="geometry" />
        </mxCell>
        <mxCell id="s5hEy_mSqx-h-BMvZN1o-5" value="Trigger" style="verticalLabelPosition=bottom;html=1;verticalAlign=top;align=center;strokeColor=none;fillColor=#00BEF2;shape=mxgraph.azure.automation;pointerEvents=1;fontStyle=1" vertex="1" parent="1">
          <mxGeometry x="270" y="675" width="50" height="45" as="geometry" />
        </mxCell>
        <mxCell id="s5hEy_mSqx-h-BMvZN1o-6" style="edgeStyle=orthogonalEdgeStyle;curved=1;rounded=0;orthogonalLoop=1;jettySize=auto;html=1;exitX=0.67;exitY=0;exitDx=0;exitDy=0;exitPerimeter=0;entryX=0.025;entryY=0.62;entryDx=0;entryDy=0;entryPerimeter=0;" edge="1" parent="1" source="s5hEy_mSqx-h-BMvZN1o-5" target="58T3i-XOkE9TOOSeGLQk-53">
          <mxGeometry relative="1" as="geometry">
            <mxPoint x="463" y="590" as="targetPoint" />
          </mxGeometry>
        </mxCell>
        <mxCell id="s5hEy_mSqx-h-BMvZN1o-7" style="edgeStyle=orthogonalEdgeStyle;curved=1;rounded=0;orthogonalLoop=1;jettySize=auto;html=1;entryX=1.025;entryY=0.66;entryDx=0;entryDy=0;entryPerimeter=0;" edge="1" parent="1" source="s5hEy_mSqx-h-BMvZN1o-1" target="58T3i-XOkE9TOOSeGLQk-53">
          <mxGeometry relative="1" as="geometry">
            <mxPoint x="463" y="590" as="targetPoint" />
          </mxGeometry>
        </mxCell>
        <mxCell id="s5hEy_mSqx-h-BMvZN1o-8" value="Schedule" style="shape=image;html=1;verticalAlign=top;verticalLabelPosition=bottom;labelBackgroundColor=#ffffff;imageAspect=0;aspect=fixed;image=https://cdn1.iconfinder.com/data/icons/material-core/20/schedule-128.png;shadow=0;fontStyle=1" vertex="1" parent="1">
          <mxGeometry x="110" y="850" width="40" height="40" as="geometry" />
        </mxCell>
        <mxCell id="s5hEy_mSqx-h-BMvZN1o-9" value="Tumbling Window" style="sketch=0;html=1;aspect=fixed;strokeColor=none;shadow=0;align=center;verticalAlign=top;fillColor=#3B8DF1;shape=mxgraph.gcp2.arrow_cycle;verticalLabelPosition=bottom;fontStyle=1" vertex="1" parent="1">
          <mxGeometry x="227.9" y="850" width="42.1" height="40" as="geometry" />
        </mxCell>
        <mxCell id="s5hEy_mSqx-h-BMvZN1o-10" style="edgeStyle=orthogonalEdgeStyle;curved=1;rounded=0;orthogonalLoop=1;jettySize=auto;html=1;entryX=1;entryY=0.41;entryDx=0;entryDy=0;entryPerimeter=0;exitX=0.511;exitY=-0.028;exitDx=0;exitDy=0;exitPerimeter=0;" edge="1" parent="1" source="s5hEy_mSqx-h-BMvZN1o-11" target="s5hEy_mSqx-h-BMvZN1o-5">
          <mxGeometry relative="1" as="geometry" />
        </mxCell>
        <mxCell id="s5hEy_mSqx-h-BMvZN1o-11" value="Storage Event" style="aspect=fixed;html=1;points=[];align=center;image;fontSize=12;image=img/lib/azure2/storage/Storage_Accounts.svg;shadow=0;fontStyle=1" vertex="1" parent="1">
          <mxGeometry x="390" y="852" width="45" height="36" as="geometry" />
        </mxCell>
        <UserObject label="Custom Event" id="s5hEy_mSqx-h-BMvZN1o-12">
          <mxCell style="aspect=fixed;html=1;points=[];align=center;image;fontSize=12;image=img/lib/azure2/integration/Event_Grid_Topics.svg;shadow=0;fontStyle=1" vertex="1" parent="1">
            <mxGeometry x="510" y="848" width="44.67" height="40" as="geometry" />
          </mxCell>
        </UserObject>
        <mxCell id="ZY8nER59gz-krFSh7VIM-1" value="Tumbling window triggers are a type of trigger that fires at a periodic time interval from a specified start time, while retaining state. Tumbling windows are a series of fixed-sized, non-overlapping, and contiguous time intervals. A tumbling window trigger has a one-to-one relationship with a pipeline and can only reference a singular pipeline." style="text;html=1;strokeColor=none;fillColor=#CCE5FF;align=left;verticalAlign=middle;whiteSpace=wrap;rounded=0;shadow=1;fontSize=14;" vertex="1" parent="1">
          <mxGeometry x="71" y="980" width="707.9" height="85" as="geometry" />
        </mxCell>
        <mxCell id="niPJYvDhOB6vMy6jox3S-1" value="" style="sketch=0;html=1;aspect=fixed;strokeColor=none;shadow=0;align=center;verticalAlign=top;fillColor=#3B8DF1;shape=mxgraph.gcp2.arrow_cycle;verticalLabelPosition=bottom;fontStyle=1" vertex="1" parent="1">
          <mxGeometry x="28.9" y="1002.5" width="42.1" height="40" as="geometry" />
        </mxCell>
      </root>
    </mxGraphModel>
  </diagram>
  <diagram id="E20LYnRVq-arFJkFCzQA" name="Event Grid">
    <mxGraphModel dx="1182" dy="732" grid="1" gridSize="10" guides="1" tooltips="1" connect="1" arrows="1" fold="1" page="1" pageScale="1" pageWidth="850" pageHeight="1100" math="0" shadow="0">
      <root>
        <mxCell id="0" />
        <mxCell id="1" parent="0" />
      </root>
    </mxGraphModel>
  </diagram>
  <diagram id="QGUUeQL4RdRafQKCL_WG" name="ADF-Tumbling Window">
    <mxGraphModel dx="1182" dy="732" grid="1" gridSize="10" guides="1" tooltips="1" connect="1" arrows="1" fold="1" page="1" pageScale="1" pageWidth="850" pageHeight="1100" math="0" shadow="0">
      <root>
        <mxCell id="0" />
        <mxCell id="1" parent="0" />
        <mxCell id="fA-6rcBgnfBcaUDUz3Dq-1" value="ADF Tumbling Window Trigger" style="text;strokeColor=none;fillColor=none;html=1;fontSize=24;fontStyle=1;verticalAlign=middle;align=center;" vertex="1" parent="1">
          <mxGeometry x="375" width="100" height="40" as="geometry" />
        </mxCell>
      </root>
    </mxGraphModel>
  </diagram>
</mxfile>
